<?xml version="1.0" encoding="iso-8859-1"?>
<!-- Generator: Adobe Illustrator 18.0.0, SVG Export Plug-In . SVG Version: 6.00 Build 0)  -->
<!DOCTYPE svg PUBLIC "-//W3C//DTD SVG 1.1//EN" "http://www.w3.org/Graphics/SVG/1.1/DTD/svg11.dtd">
<svg version="1.1" id="Capa_1" xmlns="http://www.w3.org/2000/svg" xmlns:xlink="http://www.w3.org/1999/xlink" x="0px" y="0px"
	 viewBox="0 0 325.72 325.72" style="enable-background:new 0 0 325.72 325.72;" xml:space="preserve">
<g>
	<path d="M19.564,272.491c2.762,0,5-2.239,5-5v-4.5c0-2.761-2.238-5-5-5s-5,2.239-5,5v4.5
		C14.564,270.253,16.802,272.491,19.564,272.491z"/>
	<path d="M306.156,85.151c-2.762,0-5,2.239-5,5v216.161c0,5.188-4.221,9.408-9.409,9.408H33.972c-5.188,0-9.408-4.221-9.408-9.408
		v-22.67c0-2.761-2.238-5-5-5s-5,2.239-5,5v22.67c0,10.702,8.706,19.408,19.408,19.408h257.774c10.702,0,19.409-8.707,19.409-19.408
		V90.151C311.156,87.39,308.917,85.151,306.156,85.151z"/>
	<path d="M291.747,29.128h-5.016v-5.26C286.731,10.707,276.024,0,262.863,0c-13.161,0-23.869,10.707-23.869,23.869v5.26h-18.303
		v-5.26c0-2.761-2.238-5-5-5s-5,2.239-5,5v20.048c0,7.647-6.222,13.869-13.868,13.869c-7.647,0-13.869-6.222-13.869-13.869V23.869
		c0-7.647,6.222-13.869,13.869-13.869c1.875,0,3.69,0.366,5.396,1.087c2.544,1.075,5.477-0.113,6.554-2.657
		c1.075-2.543-0.114-5.477-2.657-6.553C203.169,0.632,200.042,0,196.823,0c-13.161,0-23.869,10.707-23.869,23.869v5.26h-18.303
		v-5.26C154.651,10.707,143.943,0,130.782,0c-13.161,0-23.868,10.707-23.868,23.869v5.26H88.611v-5.26
		C88.611,10.707,77.903,0,64.742,0S40.873,10.707,40.873,23.869v5.26h-6.9c-10.702,0-19.408,8.707-19.408,19.408v198.437
		c0,2.761,2.238,5,5,5s5-2.239,5-5V48.537c0-5.188,4.221-9.408,9.408-9.408h6.9v4.788c0,4.121,1.068,8.184,3.091,11.752
		c1.361,2.402,4.412,3.247,6.814,1.885c2.402-1.361,3.247-4.413,1.885-6.815c-1.171-2.067-1.79-4.426-1.79-6.821V23.869
		C50.873,16.222,57.094,10,64.742,10s13.869,6.222,13.869,13.869v20.048c0,7.647-6.222,13.869-13.869,13.869c-2.762,0-5,2.239-5,5
		c0,2.761,2.238,5,5,5c13.161,0,23.869-10.708,23.869-23.869v-4.788h18.303v4.788c0,13.161,10.707,23.869,23.868,23.869
		c13.161,0,23.869-10.708,23.869-23.869v-4.788h18.303v4.788c0,13.161,10.708,23.869,23.869,23.869
		c13.161,0,23.868-10.708,23.868-23.869v-4.788h18.303v4.788c0,13.161,10.708,23.869,23.869,23.869
		c13.161,0,23.868-10.708,23.868-23.869v-4.788h5.016c5.189,0,9.409,4.221,9.409,9.408v25.13c0,2.761,2.238,5,5,5
		c2.762,0,5-2.239,5-5v-25.13C311.156,37.835,302.449,29.128,291.747,29.128z M144.651,43.917c0,7.647-6.222,13.869-13.869,13.869
		c-7.646,0-13.868-6.222-13.868-13.869V23.869c0-7.647,6.222-13.869,13.868-13.869c7.647,0,13.869,6.222,13.869,13.869V43.917z
		 M276.731,43.917c0,7.647-6.222,13.869-13.868,13.869c-7.647,0-13.869-6.222-13.869-13.869V23.869
		c0-7.647,6.222-13.869,13.869-13.869c7.647,0,13.868,6.222,13.868,13.869V43.917z"/>
	<path d="M195.336,270.098h65.891c9.642,0,17.486-7.844,17.486-17.486V110.256c0-9.642-7.845-17.486-17.486-17.486H101.336
		c-2.762,0-5,2.239-5,5c0,2.761,2.238,5,5,5h159.891c4.128,0,7.486,3.358,7.486,7.486v142.355c0,4.128-3.358,7.486-7.486,7.486
		h-65.891c-2.762,0-5,2.239-5,5C190.336,267.859,192.575,270.098,195.336,270.098z"/>
	<path d="M64.492,102.771h17.511c2.762,0,5-2.239,5-5c0-2.761-2.238-5-5-5H64.492c-9.642,0-17.485,7.844-17.485,17.486v142.355
		c0,9.642,7.844,17.486,17.485,17.486h115.511c2.762,0,5-2.239,5-5c0-2.761-2.238-5-5-5H64.492c-4.127,0-7.485-3.358-7.485-7.486
		V110.256C57.006,106.128,60.365,102.771,64.492,102.771z"/>
	<path d="M91.36,153c0,2.761,2.238,5,5,5h14v13.667c0,2.761,2.238,5,5,5c2.762,0,5-2.239,5-5V126c0-2.761-2.238-5-5-5
		c-2.762,0-5,2.239-5,5v22h-14C93.598,148,91.36,150.239,91.36,153z"/>
	<path d="M96.36,238h38c2.762,0,5-2.239,5-5s-2.238-5-5-5h-14v-39c0-2.761-2.238-5-5-5c-2.762,0-5,2.239-5,5v39h-14
		c-2.762,0-5,2.239-5,5S93.598,238,96.36,238z"/>
	<path d="M225.36,131c2.762,0,5-2.239,5-5s-2.238-5-5-5h-52.335c-2.762,0-5,2.239-5,5v50.665c0,2.022,1.218,3.845,3.087,4.62
		c1.866,0.772,4.018,0.346,5.448-1.084c5.289-5.289,12.32-8.201,19.8-8.201c7.479,0,14.51,2.913,19.799,8.201
		c7.546,7.546,10.14,18.53,6.768,28.665c-0.872,2.621,0.546,5.451,3.166,6.323c0.523,0.174,1.056,0.257,1.579,0.257
		c2.094,0,4.046-1.327,4.743-3.423c4.575-13.751,1.056-28.654-9.186-38.894c-7.177-7.177-16.719-11.13-26.869-11.13
		c-6.518,0-12.784,1.629-18.335,4.696V131H225.36z"/>
	<path d="M169.49,226.87c7.336,7.337,17.111,11.088,26.926,11.088c8.009,0,16.044-2.501,22.794-7.591
		c2.205-1.663,2.644-4.798,0.981-7.002c-1.663-2.204-4.797-2.645-7.003-0.981c-11.065,8.344-26.811,7.232-36.628-2.584
		c-1.951-1.952-5.119-1.952-7.07,0C167.537,221.751,167.537,224.917,169.49,226.87z"/>
</g>
<g>
</g>
<g>
</g>
<g>
</g>
<g>
</g>
<g>
</g>
<g>
</g>
<g>
</g>
<g>
</g>
<g>
</g>
<g>
</g>
<g>
</g>
<g>
</g>
<g>
</g>
<g>
</g>
<g>
</g>
</svg>
