<?xml version="1.0" encoding="iso-8859-1"?>
<!-- Generator: Adobe Illustrator 19.0.0, SVG Export Plug-In . SVG Version: 6.00 Build 0)  -->
<svg version="1.1" id="Capa_1" xmlns="http://www.w3.org/2000/svg" xmlns:xlink="http://www.w3.org/1999/xlink" x="0px" y="0px"
	 viewBox="0 0 512 512" style="enable-background:new 0 0 512 512;" xml:space="preserve">
<g>
	<g>
		<path d="M491.953,411.88h-3.835V191.125c0-14.726-11.976-26.903-26.692-27.144h-0.13c-4.096,0-7.449,3.283-7.519,7.398
			c-0.07,4.156,3.242,7.589,7.398,7.659c6.555,0.1,11.885,5.531,11.885,12.086V411.88H327.705c-11.044,0-20.037,9.005-20.037,20.047
			c0,12.057,0,20.568,0,32.003c0,8.001-6.043,15.048-13.823,16.202h-2.449c-9.085-0.231-16.393-7.509-16.684-16.573v-1.807
			c-0.003,3.022,0.01-89.664,0.01-270.626c0-5.039,3.112-9.376,7.509-11.193c4.184-1.733-6.793-0.512,148.96-0.903
			c4.156,0,7.529-3.363,7.529-7.529c0-4.156-3.373-7.529-7.529-7.529H299.778c-3.403-25.949-7.94-47.763-10.942-60.732
			c3.252-3.975,5.13-9.025,5.13-14.345V61.449c0-32.786-41.348-45.755-61.365-22.225c-11.755-14.064-29.172-22.416-47.853-22.416
			H88.79c-34.974,0-63.433,28.449-63.433,63.433c0.11,60.773-0.251,57.56,0.331,60.883C5.1,201.405-8.593,289.582,28.108,342.073
			C10.47,359.219,0,383.04,0,408.507v36.931c0,8.994,7.328,16.312,16.333,16.312h243.321c0,20.038,14.809,33.009,31.3,33.428
			c0.638,0.021,189.646,0.01,189.786,0.01c17.236,0,31.26-14.024,31.26-31.26v-32.003C512,420.875,503.006,411.88,491.953,411.88z
			 M40.415,80.241c0-26.682,21.703-48.375,48.375-48.375h95.957c17.457,0,33.468,9.637,41.79,25.146
			c3.152,5.872,11.825,5.059,13.813-1.285c6.555-20.689,38.558-16.503,38.558,5.722v27.445c0,2.961-1.717,5.652-4.377,6.866
			c-85.648,39.12-167.11,52.571-227.029,49.068c-4.035-0.271-7.087-3.614-7.087-7.559V80.241z M187.377,289.773
			c-48.084,16.975-100.535-9.486-116.044-57.601c-5.541-17.095-4.347-26.652-4.347-71.765c36.992-0.13,101.448-6.093,180.842-37.012
			v57.47c-0.191,20.247,1.486,33.318-4.347,51.306C234.939,258.674,214.27,280.297,187.377,289.773z M191.985,304.118v20.398
			c-1.435,1.435-0.412,0.412-30.999,31.009c-1.968,1.968-5.17,1.978-7.147,0c-7.809-7.812-0.173-0.173-31.009-31.019v-20.388
			C145.045,311.857,169.629,311.908,191.985,304.118z M51.929,181.026c0.181,20.619-0.492,26.331,0.853,36.861
			c-5.3-2.55-8.964-7.971-8.964-14.245C44.51,199.397,40.846,187.23,51.929,181.026z M15.058,445.439v-36.931
			c0-30.818,18.28-58.554,46.147-70.881c3.795-1.686,5.521-6.133,3.835-9.938c-1.686-3.794-6.133-5.511-9.928-3.835
			c-5.421,2.399-10.52,5.28-15.279,8.583C8.643,286.48,20.308,210.138,36.51,156.764c5.25,3.112,9.476,3.122,15.419,3.373v4.798
			c-13.311,3.423-23.169,15.529-23.169,29.894v8.814c0,15.871,12.046,28.981,27.475,30.657
			c8.051,27.294,26.883,50.011,51.537,63.212v18.451c-20.074,0.073-1.295-0.108-20.97,0.191c-4.156,0.251-7.318,3.815-7.067,7.971
			c0.261,4.146,3.825,7.318,7.971,7.057c19.726-0.301,0.602-0.1,20.338-0.161c6.575,6.575,28.379,28.379,35.145,35.145
			c7.86,7.93,20.739,7.78,28.449,0c6.726-6.726,28.559-28.559,35.145-35.145c16.851,0.09,32.594-1.602,52.872,9.657v106.066
			C0.75,446.113,15.058,447.681,15.058,445.439z M259.664,323.822c-20.318-9.145-37.403-7.78-52.621-7.86v-18.451
			c24.654-13.19,43.486-35.907,51.537-63.202c0.361-0.04,0.723-0.08,1.084-0.141V323.822z M262.886,164.935
			c-0.06-45.594,0.141-43.958-0.181-47.552c4.166-1.747,8.372-3.564,12.618-5.451c3.604,16.453,6.806,34.111,9.225,52.14
			c-4.788,0.391-9.225,2.038-12.98,4.608C268.919,167.003,265.998,165.728,262.886,164.935z M496.942,463.93
			c0,8.982-7.322,16.202-16.202,16.202c-0.145-0.006-162.377,0-162.492,0c6.875-11.451,3.728-20.076,4.477-48.205
			c0-2.751,2.229-4.989,4.979-4.989c32.092,0,128.701,0,164.249,0c2.751,0,4.989,2.239,4.989,4.989V463.93z"/>
	</g>
</g>
<g>
	<g>
		<path d="M382.083,232.413c-6.786-19.776-25.387-33.067-46.287-33.067c-26.825,0-48.967,21.758-48.967,48.957
			c0,33.097,32.645,57.325,64.848,46.297C377.224,285.826,390.865,258.013,382.083,232.413z M363.371,267.998
			c-18.863,26.428-61.485,13.522-61.485-19.695c0-18.881,15.392-33.9,33.91-33.9c18.927,0,33.89,15.445,33.89,33.9
			C369.685,255.541,367.386,262.377,363.371,267.998z"/>
	</g>
</g>
<g>
	<g>
		<path d="M357.153,232.129c-4.159,0-7.529,3.37-7.529,7.529c0,7.629-6.207,13.835-13.835,13.835
			c-7.628,0-13.836-6.207-13.836-13.835c0-4.159-3.37-7.529-7.529-7.529c-15.611,0-6.272,36.421,21.365,36.421
			C363.434,268.551,372.804,232.129,357.153,232.129z"/>
	</g>
</g>
<g>
	<g>
		<path d="M382.083,340.628c-8.726-25.43-36.451-39.227-62.188-30.396c-19.776,6.786-33.067,25.387-33.067,46.287
			c0,26.641,21.605,48.967,48.957,48.967C369.486,405.486,392.938,372.269,382.083,340.628z M335.785,390.428
			c-15.429,0-24.16-10.18-24.264-10.25c4.933,2.062,10.432-1.557,10.432-6.948c0-7.629,6.208-13.835,13.836-13.835
			c7.628,0,13.835,6.207,13.835,13.835c0,5.373,5.475,9.011,10.422,6.951C359.944,380.248,351.321,390.428,335.785,390.428z
			 M364.584,374.389c1.866-12.036-9.715-30.052-28.794-30.052c-15.932,0-28.894,12.962-28.894,28.893c0,0.396,0.04,0.781,0.098,1.16
			c-0.003-0.005-0.006-0.009-0.009-0.014c-11.424-18.4-2.871-42.804,17.798-49.91c22.273-7.631,44.902,9.104,44.902,32.063
			C369.685,366.355,365.657,371.993,364.584,374.389z"/>
	</g>
</g>
<g>
	<g>
		<path d="M452.253,211.513c-3.541-2.176-8.177-1.073-10.357,2.469l-23.067,37.509l-8.871-11.874
			c-2.489-3.332-7.208-4.013-10.537-1.527c-3.331,2.489-4.014,7.207-1.527,10.537l12.1,16.198
			c4.819,6.448,14.617,6.002,18.835-0.852l25.893-42.103C456.901,218.328,455.795,213.692,452.253,211.513z"/>
	</g>
</g>
<g>
	<g>
		<path d="M97.23,315.969C98.633,315.936,96.912,315.954,97.23,315.969L97.23,315.969z"/>
	</g>
</g>
<g>
	<g>
		<circle cx="103.376" cy="177.509" r="13.08"/>
	</g>
</g>
<g>
	<g>
		<circle cx="215.876" cy="177.509" r="13.08"/>
	</g>
</g>
<g>
	<g>
		<path d="M168.995,224.942h-14.064c-3.103,0-5.628-2.525-5.628-5.628v-50.936c0-4.158-3.371-7.529-7.529-7.529
			s-7.529,3.371-7.529,7.529v50.936c0,11.406,9.28,20.685,20.685,20.685h14.064c4.158,0,7.529-3.371,7.529-7.529
			C176.524,228.313,173.153,224.942,168.995,224.942z"/>
	</g>
</g>
<g>
	<g>
		<circle cx="157.413" cy="393.657" r="8.726"/>
	</g>
</g>
<g>
	<g>
		<circle cx="157.413" cy="425.579" r="8.726"/>
	</g>
</g>
<g>
	<g>
		<path d="M198.844,253.123c-2.099-2.969-6.207-3.673-9.175-1.574c-37.592,26.585-62.484,1.93-63.586,0.805
			c-2.515-2.608-6.668-2.694-9.287-0.189c-2.628,2.513-2.72,6.68-0.209,9.307c7.809,8.168,22.924,15.536,38.999,15.536
			c11.58,0,25.82-3.492,41.684-14.71C200.239,260.199,200.942,256.09,198.844,253.123z"/>
	</g>
</g>
<g>
</g>
<g>
</g>
<g>
</g>
<g>
</g>
<g>
</g>
<g>
</g>
<g>
</g>
<g>
</g>
<g>
</g>
<g>
</g>
<g>
</g>
<g>
</g>
<g>
</g>
<g>
</g>
<g>
</g>
</svg>
