<?xml version="1.0" encoding="iso-8859-1"?>
<!-- Generator: Adobe Illustrator 19.0.0, SVG Export Plug-In . SVG Version: 6.00 Build 0)  -->
<svg version="1.1" id="Capa_1" xmlns="http://www.w3.org/2000/svg" xmlns:xlink="http://www.w3.org/1999/xlink" x="0px" y="0px"
	 viewBox="0 0 512 512" style="enable-background:new 0 0 512 512;" xml:space="preserve">
<g>
	<g>
		<path d="M205.966,216.206l-13.432-13.431l13.432-13.431c2.927-2.928,2.927-7.676-0.001-10.606c-2.93-2.928-7.678-2.928-10.607,0
			l-18.734,18.734c-2.929,2.93-2.929,7.678,0,10.607l18.734,18.734c1.465,1.464,3.385,2.196,5.304,2.196
			c1.919,0,3.839-0.732,5.304-2.196C208.895,223.883,208.895,219.135,205.966,216.206z"/>
	</g>
</g>
<g>
	<g>
		<path d="M301.279,197.473l-18.735-18.735c-2.93-2.928-7.678-2.928-10.607,0c-2.929,2.93-2.929,7.678,0,10.607l13.432,13.431
			l-13.432,13.431c-2.929,2.93-2.929,7.678,0,10.607c1.465,1.464,3.385,2.196,5.304,2.196s3.839-0.732,5.304-2.196l18.734-18.734
			C304.208,205.15,304.208,200.402,301.279,197.473z"/>
	</g>
</g>
<g>
	<g>
		<path d="M252.308,179.917c-3.652-1.953-8.196-0.571-10.148,3.082l-18.683,34.978c-1.952,3.653-0.572,8.197,3.082,10.148
			c1.125,0.602,2.334,0.887,3.526,0.887c2.68,0,5.271-1.44,6.622-3.969l18.683-34.978
			C257.343,186.411,255.963,181.867,252.308,179.917z"/>
	</g>
</g>
<g>
	<g>
		<path d="M384.551,213.599c-36.794,0-66.729,29.935-66.729,66.729s29.935,66.729,66.729,66.729
			c36.793,0,66.729-29.935,66.729-66.729S421.346,213.599,384.551,213.599z M384.551,332.057c-28.523,0-51.729-23.206-51.729-51.729
			c0-28.523,23.206-51.729,51.729-51.729c28.523,0,51.729,23.206,51.729,51.729S413.075,332.057,384.551,332.057z"/>
	</g>
</g>
<g>
	<g>
		<path d="M430.133,421.85c4.143,0,7.5-3.357,7.5-7.5v-55.44c25.19-17.073,41.778-45.926,41.778-78.582
			c0-29.211-13.276-55.376-34.105-72.791c0.002-0.392,0.008-0.783,0.008-1.176c0-45.094-14.288-87.934-41.318-123.889
			c-2.49-3.311-7.189-3.976-10.502-1.488c-3.311,2.489-3.978,7.191-1.488,10.502c16.592,22.069,27.999,46.938,33.818,73.36
			c-10.466-10.416-24.982-19.897-43.201-28.018c-16.677-7.434-35.706-13.418-56.319-17.818
			c-4.399-20.613-10.384-39.642-17.818-56.319c-8.117-18.208-17.591-32.717-27.999-43.182c34.438,7.603,66.188,24.646,92.009,49.812
			c2.966,2.891,7.714,2.829,10.605-0.137c2.891-2.966,2.83-7.714-0.137-10.605C344.206,20.804,293.061,0,238.951,0c0,0,0,0-0.001,0
			h-0.001C125.161,0.001,32.589,92.574,32.589,206.361c0,32.737,7.446,64.048,22.133,93.058
			c14.001,27.657,34.466,52.244,59.186,71.101c1.358,1.036,2.957,1.538,4.543,1.537c2.259,0,4.493-1.017,5.969-2.951
			c2.513-3.293,1.879-8-1.414-10.512c-36.648-27.957-61.326-66.985-70.921-110.712c10.466,10.415,24.981,19.894,43.197,28.014
			c16.677,7.434,35.706,13.418,56.319,17.818c4.399,20.613,10.384,39.642,17.818,56.319c8.098,18.166,17.547,32.65,27.926,43.109
			c-17.086-3.796-33.62-9.907-49.016-18.202c-3.648-1.966-8.196-0.602-10.16,3.045c-1.965,3.646-0.602,8.195,3.045,10.16
			c29.844,16.08,63.642,24.579,97.738,24.579h0.001c32.182,0,63.959-7.559,92.52-21.888V498.53c0,5.286,2.977,9.957,7.768,12.189
			c1.843,0.859,3.789,1.28,5.717,1.28c3.084,0,6.122-1.079,8.612-3.17l30.984-26.017l30.982,26.016
			c4.047,3.399,9.538,4.126,14.329,1.891c4.791-2.232,7.768-6.903,7.768-12.189v-53.562c0-4.143-3.357-7.5-7.5-7.5
			c-4.143,0-7.5,3.357-7.5,7.5v50.233l-33.256-27.924c-2.79-2.341-6.857-2.34-9.646,0l-33.259,27.925V367.199
			c11.662,5.132,24.542,7.989,38.08,7.989s26.417-2.856,38.08-7.989v47.151C422.633,418.493,425.99,421.85,430.133,421.85z
			 M428.815,196.451c-13.223-7.006-28.286-10.983-44.264-10.983c-18.132,0-35.088,5.117-49.51,13.977
			c-0.332-22.241-2.263-43.877-5.67-64.254C382.331,147.585,420.917,170.313,428.815,196.451z M238.949,15L238.949,15
			c30.23,0,57.235,41.387,71.171,100.941c-22.484-3.759-46.5-5.728-71.17-5.728c-24.669,0-48.685,1.968-71.169,5.728
			C181.717,56.387,208.722,15,238.949,15z M47.589,206.361c0-30.228,41.386-57.233,100.941-71.169
			c-3.759,22.484-5.727,46.499-5.727,71.169s1.968,48.686,5.728,71.17C88.975,263.595,47.589,236.59,47.589,206.361z
			 M151.599,119.011c-20.613,4.399-39.642,10.384-56.319,17.818c-18.176,8.103-32.665,17.557-43.126,27.943
			C68.217,92.581,125.17,35.628,197.359,19.566c-10.386,10.46-19.841,24.951-27.942,43.126
			C161.983,79.368,155.999,98.398,151.599,119.011z M157.802,206.361c0-26.25,2.384-51.467,6.652-74.497
			c23.03-4.268,48.245-6.652,74.497-6.652c26.252,0,51.467,2.384,74.498,6.652c4.268,23.03,6.652,48.245,6.652,74.497
			c0,1.493-0.014,2.978-0.029,4.462c-18.673,17.336-30.378,42.076-30.378,69.505c0,1.406,0.037,2.804,0.098,4.196
			c-16.499,1.976-33.57,2.987-50.84,2.987c-26.25,0-51.467-2.384-74.497-6.652C160.186,257.829,157.802,232.612,157.802,206.361z
			 M238.951,397.724h-0.001c-30.228-0.002-57.233-41.387-71.169-100.942c22.484,3.759,46.499,5.728,71.169,5.728
			c17.88,0,35.566-1.049,52.671-3.099c1.972,9.618,5.41,18.706,10.06,27.028C286.079,371.1,262.687,397.724,238.951,397.724z
			 M331.471,373.893c-15.964,8.833-33.142,15.306-50.934,19.255c12.025-12.1,22.757-29.566,31.545-51.686
			c5.628,6.661,12.151,12.542,19.389,17.447V373.893z M384.551,360.187c-44.034,0-79.858-35.824-79.858-79.859
			c0-44.034,35.824-79.858,79.858-79.858c44.035,0,79.859,35.824,79.859,79.858C464.411,324.363,428.586,360.187,384.551,360.187z"
			/>
	</g>
</g>
<g>
	<g>
		<path d="M396.378,304.467h-4.327v-58.5c0-3.033-1.827-5.769-4.63-6.929c-2.803-1.163-6.028-0.52-8.174,1.625l-12.636,12.636
			c-2.929,2.93-2.929,7.678,0,10.607c2.874,2.872,7.5,2.927,10.439,0.162v40.398h-4.137c-4.143,0-7.5,3.357-7.5,7.5
			c0,4.143,3.357,7.5,7.5,7.5h23.464c4.143,0,7.5-3.357,7.5-7.5C403.877,307.823,400.52,304.467,396.378,304.467z"/>
	</g>
</g>
<g>
</g>
<g>
</g>
<g>
</g>
<g>
</g>
<g>
</g>
<g>
</g>
<g>
</g>
<g>
</g>
<g>
</g>
<g>
</g>
<g>
</g>
<g>
</g>
<g>
</g>
<g>
</g>
<g>
</g>
</svg>
