<?xml version="1.0" encoding="iso-8859-1"?>
<!-- Generator: Adobe Illustrator 19.0.0, SVG Export Plug-In . SVG Version: 6.00 Build 0)  -->
<svg xmlns="http://www.w3.org/2000/svg" xmlns:xlink="http://www.w3.org/1999/xlink" version="1.1" id="Capa_1" x="0px" y="0px" viewBox="0 0 479.987 479.987" style="enable-background:new 0 0 479.987 479.987;" xml:space="preserve" width="512px" height="512px">
<g>
	<g>
		<path d="M367.384,174.083c-1.239-2.989-4.157-4.937-7.392-4.936h-24v-56c0-4.418-3.582-8-8-8h-48c-4.418,0-8,3.582-8,8v56h-24    c-4.418,0.001-7.999,3.583-7.998,8.002c0,2.121,0.843,4.154,2.342,5.654l56,56c3.124,3.123,8.188,3.123,11.312,0l56-56    C367.937,180.515,368.623,177.073,367.384,174.083z M303.992,221.835l-36.688-36.688h12.688c4.418,0,8-3.582,8-8v-56h32v56    c0,4.418,3.582,8,8,8h12.688L303.992,221.835z" fill="#8d6dc4"/>
	</g>
</g>
<g>
	<g>
		<path d="M479.32,93.947c-1.272-2.914-4.148-4.798-7.328-4.8h-16v-24c0-4.418-3.582-8-8-8h-32c-4.418,0-8,3.582-8,8v24h-16    c-4.418,0.004-7.996,3.59-7.992,8.008c0.002,2.004,0.756,3.934,2.112,5.408l40,43.432c2.996,3.247,8.057,3.451,11.305,0.456    c0.158-0.146,0.31-0.298,0.455-0.456l40-43.432C480.019,100.231,480.587,96.852,479.32,93.947z M431.992,128.771l-21.752-23.624    h5.752c4.418,0,8-3.582,8-8v-24h16v24c0,4.418,3.582,8,8,8h5.752L431.992,128.771z" fill="#8d6dc4"/>
	</g>
</g>
<g>
	<g>
		<rect x="118.86" y="385.16" transform="matrix(0.7071 -0.7071 0.7071 0.7071 -210.0604 279.1892)" width="226.241" height="16" fill="#8d6dc4"/>
	</g>
</g>
<g>
	<g>
		<path d="M187.992,313.147c-19.882,0-36,16.118-36,36s16.118,36,36,36s36-16.118,36-36    C223.97,329.274,207.865,313.169,187.992,313.147z M187.992,369.147c-11.046,0-20-8.954-20-20c0-11.046,8.954-20,20-20    s20,8.954,20,20C207.992,360.193,199.038,369.147,187.992,369.147z" fill="#8d6dc4"/>
	</g>
</g>
<g>
	<g>
		<path d="M275.992,401.147c-19.882,0-36,16.118-36,36s16.118,36,36,36c19.873-0.022,35.978-16.127,36-36    C311.992,417.265,295.874,401.147,275.992,401.147z M275.992,457.147c-11.046,0-20-8.954-20-20c0-11.046,8.954-20,20-20    c11.046,0,20,8.954,20,20C295.992,448.193,287.038,457.147,275.992,457.147z" fill="#8d6dc4"/>
	</g>
</g>
<g>
	<g>
		
			<rect x="-13.548" y="245.141" transform="matrix(0.7071 -0.7071 0.7071 0.7071 -161.4265 116.5647)" width="147.081" height="16" fill="#8d6dc4"/>
	</g>
</g>
<g>
	<g>
		<rect x="398.053" y="441.184" transform="matrix(0.7071 -0.7071 0.7071 0.7071 -191.0928 437.0285)" width="67.88" height="16" fill="#8d6dc4"/>
	</g>
</g>
<g>
	<g>
		<path d="M31.392,198.347c-14.47,0-26.2,11.73-26.2,26.2c0,14.47,11.73,26.2,26.2,26.2c14.47,0,26.2-11.73,26.2-26.2    C57.575,210.085,45.855,198.365,31.392,198.347z M31.392,234.747c-5.633,0-10.2-4.567-10.2-10.2s4.567-10.2,10.2-10.2    s10.2,4.567,10.2,10.2C41.588,230.179,37.024,234.743,31.392,234.747z" fill="#8d6dc4"/>
	</g>
</g>
<g>
	<g>
		<path d="M88.592,255.547c-14.47,0-26.2,11.73-26.2,26.2c0.018,14.463,11.737,26.182,26.2,26.2c14.47,0,26.2-11.73,26.2-26.2    S103.062,255.547,88.592,255.547z M88.592,291.947c-5.633,0-10.2-4.567-10.2-10.2c0.004-5.631,4.568-10.196,10.2-10.2    c5.633,0,10.2,4.567,10.2,10.2S94.225,291.947,88.592,291.947z" fill="#8d6dc4"/>
	</g>
</g>
<g>
	<g>
		<path d="M210.328,251.483l-18.336,18.352v-76.688h-16v76.688l-18.344-18.344l-11.312,11.312l32,32    c2.992,3.093,7.925,3.176,11.018,0.184c0.081-0.078,0.16-0.159,0.238-0.24l0.048,0.048l32-32L210.328,251.483z" fill="#8d6dc4"/>
	</g>
</g>
<g>
	<g>
		<rect x="175.992" y="161.147" width="16" height="16" fill="#8d6dc4"/>
	</g>
</g>
<g>
	<g>
		<rect x="175.992" y="129.147" width="16" height="16" fill="#8d6dc4"/>
	</g>
</g>
<g>
	<g>
		<path d="M458.336,315.491l-18.344,18.344v-28.688h-16v28.688l-18.344-18.344l-11.312,11.312l32,32    c2.992,3.093,7.925,3.176,11.018,0.184c0.081-0.078,0.16-0.159,0.238-0.24l0.048,0.048l32-32L458.336,315.491z" fill="#8d6dc4"/>
	</g>
</g>
<g>
	<g>
		<rect x="423.992" y="273.147" width="16" height="16" fill="#8d6dc4"/>
	</g>
</g>
<g>
	<g>
		<rect x="423.992" y="233.147" width="16" height="24" fill="#8d6dc4"/>
	</g>
</g>
<g>
	<g>
		<path d="M327.992,49.147h-48c-4.418,0-8,3.582-8,8v32c0,4.418,3.582,8,8,8h48c4.418,0,8-3.582,8-8v-32    C335.992,52.729,332.41,49.147,327.992,49.147z M319.992,81.147h-32v-16h32V81.147z" fill="#8d6dc4"/>
	</g>
</g>
<g>
	<g>
		<path d="M447.992,1.147h-32c-4.418,0-8,3.582-8,8v24c0,4.418,3.582,8,8,8h32c4.418,0,8-3.582,8-8v-24    C455.992,4.729,452.41,1.147,447.992,1.147z M439.992,25.147h-16v-8h16V25.147z" fill="#8d6dc4"/>
	</g>
</g>
<g>
	<g>
		<path d="M93.4,107.259c-1.475-1.356-3.405-2.11-5.408-2.112h-16v-24c0-4.418-3.582-8-8-8h-32c-4.418,0-8,3.582-8,8v24h-16    c-4.418,0.004-7.996,3.59-7.992,8.008c0.002,2.004,0.756,3.933,2.112,5.408l40,43.432c2.996,3.247,8.057,3.451,11.305,0.456    c0.158-0.146,0.31-0.298,0.455-0.456l40-43.432C96.863,115.311,96.652,110.25,93.4,107.259z M47.992,144.771L26.24,121.147h5.752    c4.418,0,8-3.582,8-8v-24h16v24c0,4.418,3.582,8,8,8h5.752L47.992,144.771z" fill="#8d6dc4"/>
	</g>
</g>
<g>
	<g>
		<path d="M63.992,17.147h-32c-4.418,0-8,3.582-8,8v24c0,4.418,3.582,8,8,8h32c4.418,0,8-3.582,8-8v-24    C71.992,20.729,68.41,17.147,63.992,17.147z M55.992,41.147h-16v-8h16V41.147z" fill="#8d6dc4"/>
	</g>
</g>
<g>
	<g>
		<rect x="271.992" y="17.147" width="64" height="16" fill="#8d6dc4"/>
	</g>
</g>
<g>
	<g>
		<rect x="399.992" y="425.147" width="16" height="16" fill="#8d6dc4"/>
	</g>
</g>
<g>
	<g>
		<rect x="447.992" y="457.147" width="16" height="16" fill="#8d6dc4"/>
	</g>
</g>
<g>
</g>
<g>
</g>
<g>
</g>
<g>
</g>
<g>
</g>
<g>
</g>
<g>
</g>
<g>
</g>
<g>
</g>
<g>
</g>
<g>
</g>
<g>
</g>
<g>
</g>
<g>
</g>
<g>
</g>
</svg>
