<?xml version="1.0" encoding="iso-8859-1"?>
<!-- Generator: Adobe Illustrator 19.0.0, SVG Export Plug-In . SVG Version: 6.00 Build 0)  -->
<svg xmlns="http://www.w3.org/2000/svg" xmlns:xlink="http://www.w3.org/1999/xlink" version="1.1" id="Capa_1" x="0px" y="0px" viewBox="0 0 480 480" style="enable-background:new 0 0 480 480;" xml:space="preserve" width="512px" height="512px">
<g>
	<g>
		<path d="M440,118.994h-10.744l39.36-39.36c12.497-12.497,12.497-32.759,0-45.256c-12.497-12.497-32.759-12.497-45.256,0    l-84.616,84.616H40c-22.08,0.026-39.974,17.92-40,40v256c0.026,22.08,17.92,39.974,40,40h400c22.08-0.026,39.974-17.92,40-40v-256    C479.974,136.914,462.08,119.021,440,118.994z M434.672,45.69c6.25-6.25,16.382-6.25,22.632,0c6.25,6.25,6.25,16.382,0,22.632    l-158.4,158.4l-22.632-22.632L434.672,45.69z M284.104,234.49l-23.456,7.824l7.824-23.456L284.104,234.49z M96,438.994H40    c-13.255,0-24-10.745-24-24v-256c0-13.255,10.745-24,24-24h56V438.994z M464,414.994c0,13.255-10.745,24-24,24H112v-304h210.744    l-63.432,63.432c-0.08,0.08-0.104,0.184-0.176,0.264c-0.56,0.61-1.022,1.304-1.368,2.056c-0.08,0.184-0.184,0.344-0.256,0.528    c-0.072,0.184-0.096,0.176-0.128,0.272l-16.968,50.92c-1.396,4.192,0.87,8.722,5.062,10.118c0.813,0.271,1.665,0.409,2.522,0.41    c0.86,0,1.714-0.141,2.528-0.416l50.92-16.968c0.096,0,0.176-0.096,0.272-0.128s0.344-0.176,0.528-0.256    c0.752-0.346,1.446-0.808,2.056-1.368c0.08-0.072,0.184-0.096,0.264-0.176l108.688-108.688H440c13.255,0,24,10.745,24,24V414.994z    " fill="#8d6dc4"/>
	</g>
</g>
<g>
	<g>
		<path d="M168,150.994h-32c-4.418,0-8,3.582-8,8v32c0,4.418,3.582,8,8,8s8-3.582,8-8v-24h24c4.418,0,8-3.582,8-8    S172.418,150.994,168,150.994z" fill="#8d6dc4"/>
	</g>
</g>
<g>
	<g>
		<path d="M440,150.994h-32c-4.418,0-8,3.582-8,8s3.582,8,8,8h24v24c0,4.418,3.582,8,8,8s8-3.582,8-8v-32    C448,154.576,444.418,150.994,440,150.994z" fill="#8d6dc4"/>
	</g>
</g>
<g>
	<g>
		<path d="M440,374.994c-4.418,0-8,3.582-8,8v24h-24c-4.418,0-8,3.582-8,8s3.582,8,8,8h32c4.418,0,8-3.582,8-8v-32    C448,378.576,444.418,374.994,440,374.994z" fill="#8d6dc4"/>
	</g>
</g>
<g>
	<g>
		<path d="M168,406.994h-24v-24c0-4.418-3.582-8-8-8s-8,3.582-8,8v32c0,4.418,3.582,8,8,8h32c4.418,0,8-3.582,8-8    S172.418,406.994,168,406.994z" fill="#8d6dc4"/>
	</g>
</g>
<g>
	<g>
		<path d="M56,262.994c-13.255,0-24,10.745-24,24s10.745,24,24,24s24-10.745,24-24S69.255,262.994,56,262.994z M56,294.994    c-4.418,0-8-3.582-8-8s3.582-8,8-8s8,3.582,8,8S60.418,294.994,56,294.994z" fill="#8d6dc4"/>
	</g>
</g>
<g>
	<g>
		<path d="M56,326.994c-4.418,0-8,3.582-8,8v80c0,4.418,3.582,8,8,8s8-3.582,8-8v-80C64,330.576,60.418,326.994,56,326.994z" fill="#8d6dc4"/>
	</g>
</g>
<g>
	<g>
		<rect x="48" y="230.994" width="16" height="16" fill="#8d6dc4"/>
	</g>
</g>
<g>
	<g>
		<rect x="48" y="198.994" width="16" height="16" fill="#8d6dc4"/>
	</g>
</g>
<g>
	<g>
		<rect x="48" y="166.994" width="16" height="16" fill="#8d6dc4"/>
	</g>
</g>
<g>
	<g>
		<path d="M237.656,201.338l-16-16c-3.178-3.069-8.243-2.981-11.312,0.197c-2.994,3.1-2.994,8.015,0,11.115l16,16    c3.178,3.069,8.243,2.981,11.312-0.197C240.65,209.353,240.65,204.439,237.656,201.338z" fill="#8d6dc4"/>
	</g>
</g>
<g>
	<g>
		<path d="M226.528,223.41l-24-8c-4.197-1.396-8.732,0.875-10.128,5.072c-1.396,4.197,0.875,8.732,5.072,10.128l24,8    c4.197,1.396,8.732-0.875,10.128-5.072C232.996,229.341,230.725,224.807,226.528,223.41z" fill="#8d6dc4"/>
	</g>
</g>
<g>
	<g>
		<path d="M325.656,281.338l-16-16c-3.178-3.07-8.242-2.982-11.312,0.196c-2.995,3.1-2.995,8.016,0,11.116l16,16    c3.178,3.07,8.242,2.982,11.312-0.196C328.651,289.354,328.651,284.439,325.656,281.338z" fill="#8d6dc4"/>
	</g>
</g>
<g>
	<g>
		<path d="M295.584,300.466l-8-24c-1.396-4.197-5.931-6.468-10.128-5.072c-4.197,1.396-6.468,5.931-5.072,10.128l8,24    c1.396,4.197,5.931,6.468,10.128,5.072S296.98,304.664,295.584,300.466z" fill="#8d6dc4"/>
	</g>
</g>
<g>
	<g>
		<path d="M376,406.994h-16c-4.418,0-8,3.582-8,8s3.582,8,8,8h16c4.418,0,8-3.582,8-8S380.418,406.994,376,406.994z" fill="#8d6dc4"/>
	</g>
</g>
<g>
</g>
<g>
</g>
<g>
</g>
<g>
</g>
<g>
</g>
<g>
</g>
<g>
</g>
<g>
</g>
<g>
</g>
<g>
</g>
<g>
</g>
<g>
</g>
<g>
</g>
<g>
</g>
<g>
</g>
</svg>
